<?xml version="1.0" encoding="utf-8"?>
<!-- Generator: Adobe Illustrator 23.0.3, SVG Export Plug-In . SVG Version: 6.00 Build 0)  -->
<svg version="1.1" id="Capa_1" xmlns="http://www.w3.org/2000/svg" xmlns:xlink="http://www.w3.org/1999/xlink" x="0px" y="0px"
	 viewBox="0 0 100 100" style="enable-background:new 0 0 100 100;" xml:space="preserve">
<style type="text/css">
	.st0{fill:#515151;}
</style>
<g>
	<path class="st0" d="M82.41,42.47h-4.05V14.14H68.25v-4.05h10.12c2.23,0,4.05,1.81,4.05,4.05V42.47z"/>
	<path class="st0" d="M48.01,72.82H7.55c-2.23,0-4.05-1.82-4.05-4.05V14.14c0-2.23,1.81-4.05,4.05-4.05h10.12v4.05H7.55v54.63h40.47
		V72.82z"/>
	<path class="st0" d="M74.32,93.05c-13.39,0-24.28-10.89-24.28-24.28s10.89-24.28,24.28-24.28c13.39,0,24.28,10.89,24.28,24.28
		S87.71,93.05,74.32,93.05z M74.32,48.54c-11.16,0-20.23,9.08-20.23,20.23s9.08,20.23,20.23,20.23c11.16,0,20.23-9.08,20.23-20.23
		S85.48,48.54,74.32,48.54z"/>
	<rect x="5.52" y="26.28" class="st0" width="74.87" height="4.05"/>
	<path class="st0" d="M74.32,74.84c-0.54,0-1.05-0.21-1.43-0.59l-6.07-6.07l2.86-2.86l4.5,4.5l8.7-10.44l3.11,2.59L75.87,74.12
		c-0.37,0.44-0.9,0.7-1.46,0.73C74.38,74.84,74.35,74.84,74.32,74.84z"/>
	<rect x="62.18" y="6.05" class="st0" width="4.05" height="12.14"/>
	<rect x="25.76" y="10.09" class="st0" width="34.4" height="4.05"/>
	<rect x="19.69" y="6.05" class="st0" width="4.05" height="12.14"/>
	<rect x="27.78" y="36.4" class="st0" width="6.07" height="4.05"/>
	<rect x="37.9" y="36.4" class="st0" width="6.07" height="4.05"/>
	<rect x="48.01" y="36.4" class="st0" width="6.07" height="4.05"/>
	<rect x="58.13" y="36.4" class="st0" width="6.07" height="4.05"/>
	<rect x="17.66" y="46.51" class="st0" width="6.07" height="4.05"/>
	<rect x="27.78" y="46.51" class="st0" width="6.07" height="4.05"/>
	<rect x="37.9" y="46.51" class="st0" width="6.07" height="4.05"/>
	<rect x="48.01" y="46.51" class="st0" width="6.07" height="4.05"/>
	<rect x="17.66" y="56.63" class="st0" width="6.07" height="4.05"/>
	<rect x="27.78" y="56.63" class="st0" width="6.07" height="4.05"/>
	<rect x="37.9" y="56.63" class="st0" width="6.07" height="4.05"/>
</g>
</svg>
