<?xml version="1.0" encoding="utf-8"?>
<!-- Generator: Adobe Illustrator 23.0.3, SVG Export Plug-In . SVG Version: 6.00 Build 0)  -->
<svg version="1.1" id="Capa_1" xmlns="http://www.w3.org/2000/svg" xmlns:xlink="http://www.w3.org/1999/xlink" x="0px" y="0px"
	 viewBox="0 0 100 100" style="enable-background:new 0 0 100 100;" xml:space="preserve">
<style type="text/css">
	.st0{fill:#515151;}
</style>
<g>
	<path class="st0" d="M82.68,94.21v-4.5c0.92,0,9-0.13,9-4.5V60.47c0-6.55-12.42-9-20.24-9h-4.5v-4.5h4.5
		c9.19,0,24.74,2.84,24.74,13.49v24.74C96.17,90.76,91,94.21,82.68,94.21z"/>
	<path class="st0" d="M35.45,33.49c-7.82,0-13.49-5.49-13.49-13.04v-5.4C21.95,7.49,27.63,2,35.45,2s13.49,5.49,13.49,13.04v5.4
		C48.94,28,43.27,33.49,35.45,33.49z M35.45,6.5c-5.38,0-9,3.43-9,8.55v5.4c0,5.11,3.62,8.55,9,8.55s9-3.43,9-8.55v-5.4
		C44.44,9.93,40.83,6.5,35.45,6.5z"/>
	<path class="st0" d="M72.55,42.48c-7.17,0-12.37-5.11-12.37-12.14v-4.95c0-7.04,5.2-12.14,12.37-12.14s12.37,5.11,12.37,12.14v4.95
		C84.92,37.37,79.72,42.48,72.55,42.48z M72.55,17.74c-4.71,0-7.87,3.07-7.87,7.65v4.95c0,4.57,3.16,7.65,7.87,7.65
		s7.87-3.07,7.87-7.65v-4.95C80.43,20.82,77.26,17.74,72.55,17.74z"/>
	<rect x="80.43" y="67.22" class="st0" width="4.5" height="29.24"/>
	<rect x="48.94" y="58.77" class="st0" width="4.5" height="37.69"/>
	<rect x="17.45" y="58.22" class="st0" width="4.5" height="38.23"/>
	<path class="st0" d="M51.19,87.46v-4.5c0.92,0,9-0.13,9-4.5V53.73c0-6.21-14.97-11.24-24.74-11.24c-9.73,0-24.74,4.75-24.74,11.06
		v24.92c0,4.37,8.08,4.5,9,4.5v4.5c-8.32,0-13.49-3.45-13.49-9V53.54c0-10.36,18.74-15.56,29.24-15.56c8.6,0,29.24,4.53,29.24,15.74
		v24.74C64.68,84.02,59.51,87.46,51.19,87.46z"/>
</g>
</svg>
