<?xml version="1.0" encoding="UTF-8"?>
<svg width="91px" height="79px" viewBox="0 0 91 79" version="1.1" xmlns="http://www.w3.org/2000/svg" xmlns:xlink="http://www.w3.org/1999/xlink">
    <!-- Generator: sketchtool 59 (101010) - https://sketch.com -->
    <title>9D3EAB60-DA1B-4B9A-B2E8-153D08369455_webview</title>
    <desc>Created with sketchtool.</desc>
    <defs>
        <polygon id="path-1" points="0 0 91 0 91 79 0 79"></polygon>
    </defs>
    <g id="Page-3" stroke="none" stroke-width="1" fill="none" fill-rule="evenodd">
        <g id="Desktop-" transform="translate(-1025.000000, -1484.000000)">
            <g id="quality" transform="translate(1025.000000, 1484.000000)">
                <g id="Group-3">
                    <mask id="mask-2" fill="white">
                        <use xlink:href="#path-1"></use>
                    </mask>
                    <g id="Clip-2"></g>
                    <path d="M38.8759171,61.4038805 C41.1722281,63.9017036 41.7099009,67.512886 43.2610162,70.5322455 C47.603078,78.9796008 59.6040296,81.0852379 68.1407647,76.9454314 C76.6763207,72.8068061 82.1520939,64.1669016 85.7082808,55.359255 C88.4066673,48.6749647 90.2690669,41.6227047 90.8415233,34.4357784 C91.3526662,28.0178675 90.7401201,21.2390745 87.3313216,15.780956 C83.9225231,10.3234282 77.169777,6.6106555 70.9653157,8.28689619 C64.3959207,10.061774 59.261499,17.2746885 52.5553276,16.1223469 C46.5236054,15.085771 43.8482115,8.04296123 39.2025297,4.0514057 C23.3158308,-9.60009221 0.798423274,14.3309311 0.0219812766,30.1967441 C-0.432564494,39.4810385 6.2317486,48.1038143 13.5846602,53.095326 C20.8727209,58.0431301 33.0570237,55.0739751 38.8759171,61.4038805" id="Fill-1" fill="#D4FDFD" mask="url(#mask-2)"></path>
                </g>
                <g id="smiley" transform="translate(18.000000, 10.000000)" fill="#030303" fill-rule="nonzero">
                    <path d="M27.9249231,55.8498462 C12.5264615,55.8498462 0,43.3232308 0,27.9250769 C0,12.5267692 12.5264615,0 27.9249231,0 C43.3232308,0 55.85,12.5267692 55.85,27.9250769 C55.85,43.3232308 43.3232308,55.8498462 27.9249231,55.8498462 Z M27.9249231,1.80153846 C13.5209231,1.80153846 1.80153846,13.5213846 1.80153846,27.9250769 C1.80153846,42.3292308 13.5209231,54.0484615 27.9249231,54.0484615 C42.3290769,54.0484615 54.0484615,42.3292308 54.0484615,27.9250769 C54.0484615,13.5213846 42.3290769,1.80153846 27.9249231,1.80153846 Z" id="Shape"></path>
                    <path d="M27.9249231,47.142 C17.3286154,47.142 8.708,38.5218462 8.708,27.9250769 L10.5095385,27.9250769 C10.5095385,37.5278462 18.3221538,45.3403077 27.9247692,45.3403077 C37.5284615,45.3403077 45.3410769,37.5278462 45.3410769,27.9250769 L47.1426154,27.9250769 C47.1426154,38.5218462 38.5218462,47.142 27.9249231,47.142 Z" id="Path"></path>
                    <g id="Group" transform="translate(15.307692, 17.769231)">
                        <path d="M3.00938462,0.846769231 C1.84984615,0.846769231 0.906923077,1.79015385 0.906923077,2.94923077 C0.906923077,4.10784615 1.84984615,5.05092308 3.00938462,5.05092308 C4.168,5.05092308 5.11092308,4.10784615 5.11092308,2.94923077 C5.11092308,1.79030769 4.16784615,0.846769231 3.00938462,0.846769231 Z" id="Shape"></path>
                        <path d="M22.2261538,0.846769231 C21.0676923,0.846769231 20.1246154,1.79015385 20.1246154,2.94923077 C20.1246154,4.10784615 21.0676923,5.05092308 22.2261538,5.05092308 C23.3847692,5.05092308 24.3278462,4.10784615 24.3278462,2.94923077 C24.3278462,1.79030769 23.3847692,0.846769231 22.2261538,0.846769231 Z" id="Shape"></path>
                    </g>
                </g>
            </g>
        </g>
    </g>
</svg>