<?xml version="1.0" encoding="UTF-8"?>
<svg width="103px" height="81px" viewBox="0 0 103 81" version="1.1" xmlns="http://www.w3.org/2000/svg" xmlns:xlink="http://www.w3.org/1999/xlink">
    <!-- Generator: sketchtool 59 (101010) - https://sketch.com -->
    <title>F1DDA5FE-8180-4A2F-AA7C-3661EB2840AC_webview</title>
    <desc>Created with sketchtool.</desc>
    <defs>
        <polygon id="path-1" points="0 0 103 0 103 81 0 81"></polygon>
    </defs>
    <g id="Page-3" stroke="none" stroke-width="1" fill="none" fill-rule="evenodd">
        <g id="Desktop-" transform="translate(-749.000000, -1479.000000)">
            <g id="great-deals" transform="translate(749.000000, 1479.000000)">
                <g id="Group-3">
                    <mask id="mask-2" fill="white">
                        <use xlink:href="#path-1"></use>
                    </mask>
                    <g id="Clip-2"></g>
                    <path d="M0.415455921,43.8228844 C-0.810669177,48.3667636 0.812014064,53.2864617 3.51564819,57.1335623 C7.84196555,63.2904365 14.6343592,67.200594 21.4424644,70.3773998 C38.495093,78.3339175 57.5889591,82.9458981 76.1957688,80.2060765 C84.1822361,79.0306961 92.5721747,76.0771116 97.0493224,69.3375918 C98.0089805,67.8929585 98.7731876,66.2604158 98.8718558,64.526982 C99.2307064,58.2263381 91.0381043,53.3564549 92.5181271,47.2229117 C93.4696153,43.2742895 97.91534,41.4122197 100.484484,38.2719869 C104.120124,33.8289988 103.536285,27.0049827 100.511507,22.1231186 C97.4873589,17.2412546 92.5262971,13.9282459 87.5495238,11.0799664 C78.4368565,5.86642315 68.5750651,1.63972016 58.1570868,0.413263747 C53.1419774,-0.176318126 48.0684214,-0.0640768714 43.0332013,0.30795875 C38.4737254,0.644682515 33.6754347,1.29290729 30.0605338,4.10146094 C24.9008788,8.10935655 23.7168605,16.3780059 27.5429238,21.6810899 C29.1756624,23.9448321 31.5292444,25.6461068 32.9545913,28.0460518 C34.3805666,30.4459969 34.4408987,34.1083408 32.0345261,35.5151399 C31.018935,36.1091357 29.7852684,36.1671481 28.610677,36.1362502 C19.7286545,35.8947423 3.83427731,31.1490812 0.415455921,43.8228844" id="Fill-1" fill="#D4FDFD" mask="url(#mask-2)"></path>
                </g>
                <g id="positive-vote" transform="translate(32.000000, 15.000000)" fill="#000000" fill-rule="nonzero">
                    <path d="M54.2844215,23.9902954 C53.7062578,23.1135865 52.8298654,22.5094604 51.810953,22.2804565 C52.4682472,21.0179443 52.4414449,19.442688 51.6041924,18.1733398 C51.008586,17.2697143 50.1100711,16.6860962 49.1320003,16.4652099 C49.3064279,16.1311035 49.4353342,15.7705078 49.5123375,15.3902588 C49.725905,14.3328247 49.5174427,13.25531 48.9239635,12.355957 C48.3457998,11.4788208 47.4694075,10.8746948 46.450495,10.6461182 C47.1077893,9.38360598 47.080987,7.80834961 46.2437345,6.53857422 C45.0197633,4.68218997 42.5190672,4.17163086 40.6701346,5.40124506 L36.6668085,8.06384272 C34.5328357,6.97692866 32.2631498,6.20574948 29.9075263,5.7665405 C29.1630182,4.63134766 28.2972617,3.57604975 27.328125,2.63269037 L25.6719137,1.02069089 C24.4590037,-0.160217313 22.556892,-0.337524469 21.1487083,0.599426297 C19.482712,1.70727539 19.0249459,3.9699707 20.1280941,5.64306641 C20.1714883,5.70928958 20.2140315,5.77593997 20.2561494,5.84259036 C14.8271968,6.94573972 9.87940909,9.83905027 6.21728038,14.0786133 C2.24330907,18.6796264 0.0544554455,24.5722046 0.0544554455,30.6707154 C0.0544554455,31.8396607 0.134011475,33.0107422 0.291421693,34.1506348 C1.50433168,43.012146 7.38211634,50.6487427 15.6304146,54.0808105 C18.689279,55.3540039 21.9349088,56 25.2758354,56 C30.5669477,56 35.6317295,54.3726197 39.9230739,51.2943115 C44.1212484,48.2822266 47.2622215,44.1255493 49.0069229,39.2737427 C49.1698639,38.8217163 48.9363011,38.3222656 48.4861927,38.1590576 C48.0356591,37.9958496 47.5387531,38.2299805 47.3762376,38.6824341 C45.7515083,43.2005615 42.8258045,47.0714112 38.9147974,49.8771362 C34.9195545,52.7435302 30.2032023,54.2585449 25.2758354,54.2585449 C22.7283416,54.2585449 20.2408338,53.8547974 17.8601098,53.0584107 L24.9146427,48.3668213 C24.9150681,48.366394 24.9154935,48.366394 24.915919,48.3659668 C24.9163444,48.3659668 24.9163444,48.3655396 24.9167698,48.3651122 L30.7796643,44.4660645 L30.7800898,44.4660645 C31.3063506,44.1157227 31.6658416,43.5808105 31.7917698,42.9591675 C31.917698,42.3375245 31.7951733,41.7034912 31.4463181,41.1749878 L31.3688893,41.0570678 L32.5077739,40.2995605 C33.3203511,39.7590943 34.2975711,39.5471802 35.259901,39.7022706 C36.6531946,39.927002 38.0681853,39.6193848 39.2440826,38.8370971 L48.6904007,32.5548706 C48.6257348,33.3777466 48.5193766,34.1959229 48.3709003,35.0004272 C48.2832611,35.4733887 48.5942528,35.9279785 49.0652072,36.0155639 C49.1183865,36.0258178 49.171991,36.0305176 49.2243193,36.0305176 C49.6340115,36.0305176 49.9981823,35.7374268 50.075611,35.3182983 C50.3159809,34.0198974 50.4542466,32.6898803 50.489983,31.3581543 L53.1519183,29.5876465 C54.0474551,28.9920654 54.6588027,28.081604 54.87237,27.0245971 C55.086363,25.967163 54.8774752,24.8896484 54.2844215,23.9902954 L54.2844215,23.9902954 Z M34.9833695,9.18322759 L32.3341971,10.9451904 L31.812616,9.53399661 C31.5947942,8.94525144 31.345065,8.36804194 31.0685334,7.80322266 C32.4124768,8.14544675 33.7211092,8.60687253 34.9833695,9.18322759 Z M7.52718902,15.2197876 C11.0467977,11.1451417 15.841004,8.40606692 21.0857441,7.45629883 C21.9272509,9.50366211 22.1289063,11.7911378 21.6260442,13.9713745 L19.5120668,23.1430664 C19.1798036,22.7867432 18.7484143,22.5410767 18.2625696,22.4419556 C17.643139,22.3150635 17.0122215,22.4385376 16.4859607,22.7888794 L10.4979889,26.770813 C10.4975635,26.770813 10.4975635,26.770813 10.4971379,26.7712402 C10.4971379,26.7712402 10.4967125,26.7712402 10.4967125,26.7716675 L1.86041922,32.5151367 C1.81319622,31.9033203 1.78852104,31.2868042 1.78852104,30.6707154 C1.78852104,24.9917603 3.82677138,19.5042115 7.52718902,15.2197876 Z M30.0925898,42.6118164 C30.0589805,42.7775879 29.9628326,42.9207154 29.8220142,43.0142823 L29.8224397,43.0142823 L24.6729966,46.4386596 L15.1156404,32.1246338 C14.8488939,31.7251587 14.3102955,31.6187745 13.9125155,31.8866577 C13.5151609,32.154541 13.4088027,32.6950073 13.6755492,33.0944824 L23.2269493,47.4003906 L15.8758895,52.2893677 C8.57120207,49.0807495 3.3439047,42.3046264 2.08717507,34.4197997 L10.7336789,28.6882935 L11.728767,30.1793823 C11.8963877,30.4297486 12.1703667,30.5651855 12.4498762,30.5651855 C12.6157952,30.5651855 12.7838412,30.5177612 12.931892,30.4177857 C13.329672,30.1499023 13.4360304,29.6090088 13.1692838,29.2095337 L12.1810025,27.729126 L17.4436107,24.2406616 C17.5835783,24.1470948 17.7516244,24.114624 17.9166924,24.1483764 C18.0817606,24.1821289 18.2242806,24.2786865 18.3174505,24.4196777 L30.0006962,42.1367187 C30.0934406,42.2772827 30.1261989,42.4460449 30.0925898,42.6118164 L30.0925898,42.6118164 Z M53.1731899,26.6776733 C53.0515161,27.2792358 52.7039372,27.7970581 52.1942682,28.1358643 L49.1511448,30.159729 C49.1502939,30.1601562 49.1494431,30.1610107 49.1481667,30.161438 L38.2864325,37.385315 C37.4738552,37.9257812 36.4966352,38.1381225 35.5343054,37.982605 C34.1414372,37.7583008 32.7264464,38.0654908 31.5501238,38.8477784 L30.4112392,39.6052857 L20.8423964,25.0947266 L23.3158648,14.3644409 C23.9527383,11.6001587 23.6170714,8.68847656 22.403736,6.15191653 C22.3926748,6.12542722 22.3807627,6.09979245 22.3671489,6.07458491 C22.1340115,5.59521484 21.869392,5.12994387 21.573716,4.68133542 C20.9985304,3.80889895 21.2371984,2.62927241 22.1063582,2.05120847 C22.8406559,1.56286616 23.8327661,1.65515131 24.4649597,2.27081302 L26.1211711,3.88323972 C27.9126701,5.62768555 29.3187268,7.79125977 30.1866105,10.1402588 L31.0885288,12.5802612 C31.0902305,12.5849609 31.0919323,12.5888061 31.093634,12.5930786 C31.0957611,12.5986328 31.0983137,12.6046143 31.1004409,12.6101685 C31.1068225,12.6251221 31.1127785,12.638794 31.11916,12.6503296 C31.1366027,12.6870728 31.1557472,12.7233887 31.1787206,12.7579956 C31.44334,13.1591797 31.9810875,13.2689819 32.3801439,13.0032349 L41.6277847,6.85345456 C42.6794554,6.15405273 44.1016786,6.44415286 44.7981126,7.5003052 C45.4945467,8.55645755 45.2056775,9.98474116 44.1540068,10.6841431 L43.3512144,11.2182007 C43.3512144,11.2182007 43.3507889,11.2182007 43.3503635,11.2186279 L41.5597153,12.4097901 C41.5571627,12.411499 41.5554611,12.4132081 41.5529084,12.4144897 C41.542698,12.4217529 41.532913,12.4285888 41.5248299,12.4354247 C41.154703,12.708435 41.0589805,13.2275391 41.3155167,13.6163331 C41.5797107,14.0175171 42.1178837,14.1273193 42.5173654,13.8615723 L44.3092899,12.6695557 C44.8185334,12.331604 45.4281791,12.2124023 46.0267636,12.3345948 C46.6253481,12.4567871 47.1413985,12.8058471 47.4783416,13.317688 C47.8157101,13.8291016 47.9348313,14.4421997 47.8131575,15.0433349 C47.6914836,15.6448974 47.3439047,16.1627198 46.8342358,16.5015259 L44.2399443,18.2271729 C43.8404625,18.4924927 43.7311262,19.0325318 43.9957457,19.4337159 C44.1625155,19.6866456 44.4381962,19.8237915 44.7194075,19.8237915 C44.8836247,19.8237915 45.0499691,19.7767944 45.197169,19.6789551 L45.5987779,19.4119263 L46.9882426,18.487793 C48.0403388,17.7883911 49.4621365,18.0784912 50.1585705,19.1346435 C50.8550046,20.1912232 50.5661355,21.6190796 49.5144647,22.3189087 L48.2185953,23.1806641 C48.2117884,23.1849365 48.2049814,23.1896362 48.1981745,23.1943359 L46.9201733,24.0441284 C46.5206915,24.3094482 46.4113552,24.8499146 46.6759746,25.2510987 C46.8427444,25.5040284 47.1184251,25.6411743 47.3996365,25.6411743 C47.5638536,25.6411743 47.730198,25.5941772 47.8773978,25.4963379 L48.2790068,25.2293091 C48.2790068,25.2293091 48.2790068,25.2288818 48.2794323,25.2288818 L49.6688969,24.3051758 C50.1781404,23.9663697 50.7882116,23.8467407 51.3872215,23.9693604 C51.9862314,24.0911255 52.5018564,24.4406128 52.8392249,24.9520263 C53.176168,25.46344 53.2948639,26.076538 53.1731899,26.6776733 Z" id="Shape"></path>
                </g>
            </g>
        </g>
    </g>
</svg>