<?xml version="1.0" encoding="UTF-8"?>
<svg width="90px" height="79px" viewBox="0 0 90 79" version="1.1" xmlns="http://www.w3.org/2000/svg" xmlns:xlink="http://www.w3.org/1999/xlink">
    <!-- Generator: sketchtool 59.1 (101010) - https://sketch.com -->
    <title>7469B192-DF3E-46A0-A55E-2186B34FFE39_webview</title>
    <desc>Created with sketchtool.</desc>
    <defs>
        <polygon id="path-1" points="0 0 90 0 90 79 0 79"></polygon>
    </defs>
    <g id="Page-3" stroke="none" stroke-width="1" fill="none" fill-rule="evenodd">
        <g id="Desktop--Copy-2" transform="translate(-465.000000, -1477.000000)">
            <g id="Group-8" transform="translate(453.000000, 1477.000000)">
                <g id="24-hours" transform="translate(12.000000, 0.000000)">
                    <g id="Group-3">
                        <path d="M28.9158389,78.9931529 C37.053743,78.8436358 44.9963471,76.4302619 52.4702314,73.2475987 C65.7426927,67.5954926 78.2345647,59.1091945 85.8781158,46.9916819 C88.1930303,43.3212796 90.0746231,39.1884597 89.9977238,34.8645232 C89.9202141,30.5405866 87.4569937,26.0406059 83.3209073,24.6232084 C80.4756314,23.6477303 77.3465603,24.2168597 74.3523682,23.898533 C71.3581761,23.5796035 68.017937,21.7208896 67.9477511,18.7468268 C67.8903817,16.3280268 69.9959591,14.4524319 70.9333988,12.2181167 C72.8754125,7.5897201 69.1146681,2.09135131 64.2742814,0.594975073 C59.4345049,-0.900798277 54.1504211,0.630545661 49.6261761,2.89379965 C40.9219022,7.24667494 33.8648612,14.1558094 26.3567995,20.3101239 C20.1883731,25.3659705 13.5823529,30.0178799 8.43192751,36.085981 C0.278765639,45.693054 -4.5604005,62.1465609 6.27508388,71.5444307 C12.3910233,76.8492714 20.7785451,79.1426699 28.9158389,78.9931529 Z" id="Fill-1" fill="#D4FDFD"></path>
                        <mask id="mask-2" fill="white">
                            <use xlink:href="#path-1"></use>
                        </mask>
                        <g id="Clip-2"></g>
                    </g>
                    <g transform="translate(15.000000, 16.000000)" fill="#000000" fill-rule="nonzero">
                        <path d="M48.1833333,44.1 L45.7333333,44.1 L45.7333333,28.5833333 C45.7330271,28.1323292 45.3670583,27.7669729 44.9160542,27.767279 C44.6499229,27.767279 44.4005333,27.8973333 44.2478167,28.1153833 L32.8144833,44.4487167 C32.5560083,44.8183604 32.6461479,45.3275521 33.0157917,45.585925 C33.1528896,45.6817812 33.3160188,45.7332312 33.4833333,45.7333333 L44.1,45.7333333 L44.1,48.1833333 C44.1,48.6343375 44.4656625,49 44.9166667,49 C45.3676708,49 45.7333333,48.6343375 45.7333333,48.1833333 L45.7333333,45.7333333 L48.1833333,45.7333333 C48.6343375,45.7333333 49,45.3676708 49,44.9166667 C49,44.4656625 48.6343375,44.1 48.1833333,44.1 Z M44.1,44.1 L35.0513333,44.1 L44.1,31.1738 L44.1,44.1 Z" id="Shape"></path>
                        <path d="M33.4833333,47.3666667 L23.8148167,47.3666667 L32.8038667,36.78185 C32.8242833,36.7575542 32.8433729,36.7322375 32.8610333,36.7059 C34.5521458,34.2030208 33.98885,30.8143646 31.5788667,28.9933 C28.6485646,26.8878312 24.5662521,27.5565792 22.4608854,30.4868812 C21.6624917,31.5980583 21.2331292,32.9317771 21.2333333,34.3 C21.2333333,34.7510042 21.5989958,35.1166667 22.05,35.1166667 C22.5010042,35.1166667 22.8666667,34.7510042 22.8666667,34.3 C22.8663604,31.5937708 25.0600292,29.3997958 27.7661563,29.3994896 C28.7918896,29.3993875 29.7917958,29.7211542 30.625,30.3195667 C32.3131521,31.6130646 32.706275,33.9952813 31.5233333,35.76265 L21.4277,47.65495 C21.1358438,47.9988688 21.1781063,48.5141854 21.522025,48.8060417 C21.6695354,48.9311958 21.8565521,49 22.05,49 L33.4833333,49 C33.9343375,49 34.3,48.6343375 34.3,48.1833333 C34.3,47.7323292 33.9343375,47.3666667 33.4833333,47.3666667 Z" id="Path"></path>
                        <path d="M22.0679667,43.29885 C22.0850146,42.8481521 21.7333375,42.4690146 21.2826396,42.4519667 C21.2825375,42.4519667 21.2824354,42.4519667 21.2823333,42.4519667 C10.6278958,42.0564958 2.07647708,33.5203896 1.66191667,22.8666667 L4.9,22.8666667 C5.35100417,22.8666667 5.71666667,22.5010042 5.71666667,22.05 C5.71666667,21.5989958 5.35100417,21.2333333 4.9,21.2333333 L1.66191667,21.2333333 C2.07055625,10.5983937 10.5982917,2.07096458 21.2333333,1.66273333 L21.2333333,4.08333333 C21.2333333,4.5343375 21.5989958,4.9 22.05,4.9 C22.5010042,4.9 22.8666667,4.5343375 22.8666667,4.08333333 L22.8666667,1.66273333 C33.3561375,2.0684125 41.8221125,10.374525 42.4274667,20.8544 L39.2424667,17.6694 C38.9180458,17.3560042 38.4010958,17.3649875 38.0877,17.6894083 C37.7820625,18.0058667 37.7820625,18.5076062 38.0877,18.8241667 L42.6463333,23.3828 C42.7321854,23.4867208 42.8428438,23.5672646 42.9681,23.6171833 C43.0000521,23.6267792 43.0325146,23.6347417 43.0652833,23.6408667 C43.1213271,23.6610792 43.1793104,23.6750646 43.2384167,23.6825167 C43.2465833,23.6825167 43.2539333,23.6825167 43.2621,23.6825167 C43.2702667,23.6825167 43.2776167,23.6825167 43.2849667,23.6825167 C43.3471354,23.6778208 43.4085896,23.665775 43.4679,23.6465833 C43.5014854,23.6425 43.5347646,23.6362729 43.5675333,23.6278 C43.6780896,23.5884979 43.7787438,23.5255125 43.86235,23.4432333 L48.48305,18.8241667 C48.7963438,18.4997458 48.7874625,17.9827958 48.4630417,17.6694 C48.1465833,17.3637625 47.6448438,17.3637625 47.3282833,17.6694 L44.0640667,20.9311667 C43.4806604,9.22527083 33.828375,0.0286854167 22.1079833,0.0114333333 C22.0875667,0.0106166667 22.0704167,0 22.05,0 C22.0295833,0 22.0124333,0.0106166667 21.9920167,0.0114333333 C9.8594125,0.0280729167 0.0280729167,9.8594125 0.0114333333,21.9920167 C0.0114333333,22.0124333 0,22.0295833 0,22.05 C0,22.0704167 0.0106166667,22.0875667 0.0114333333,22.1079833 C0.0317479167,33.9411771 9.39687292,43.6445042 21.2219,44.0844833 L21.2521167,44.0844833 C21.6909729,44.0844833 22.0513271,43.7374 22.0679667,43.29885 Z" id="Path"></path>
                        <path d="M33.0219167,11.0780833 C32.7030083,10.7592771 32.1860583,10.7592771 31.86715,11.0780833 L23.09125,19.8531667 C22.4282187,19.5575333 21.6708625,19.5575333 21.0079333,19.8531667 L16.8527333,15.6979667 C16.5283125,15.3846729 16.0112604,15.3936563 15.6979667,15.7180771 C15.3923292,16.0345354 15.3923292,16.536275 15.6979667,16.8527333 L19.845,20.9997667 C19.2627167,22.2186417 19.77885,23.6788417 20.9978271,24.2610229 C21.9334208,24.7079438 23.0491917,24.5163333 23.78215,23.7829667 C24.5190896,23.0522542 24.7088625,21.9334208 24.2541833,21.0005833 L33.0219167,12.23285 C33.3407229,11.9139417 33.3407229,11.3969917 33.0219167,11.0780833 Z M22.6275875,22.6271792 C22.6274854,22.6272813 22.6274854,22.6272813 22.6273833,22.6273833 C22.3043917,22.9361854 21.7956083,22.9361854 21.4726167,22.6273833 C21.1536063,22.308475 21.1536063,21.7914229 21.4724125,21.4724125 C21.7913208,21.1534021 22.3083729,21.1534021 22.6273833,21.4722083 C22.9463938,21.7911167 22.9463938,22.3082708 22.6275875,22.6271792 Z" id="Shape"></path>
                    </g>
                </g>
            </g>
        </g>
    </g>
</svg>