<?xml version="1.0" encoding="UTF-8"?>
<svg width="20px" height="20px" viewBox="0 0 20 20" version="1.1" xmlns="http://www.w3.org/2000/svg" xmlns:xlink="http://www.w3.org/1999/xlink">
    <!-- Generator: sketchtool 59 (101010) - https://sketch.com -->
    <title>46464912-37FA-4B5A-92C1-429BD051B246_webview</title>
    <desc>Created with sketchtool.</desc>
    <g id="Page-3" stroke="none" stroke-width="1" fill="none" fill-rule="evenodd">
        <g id="Desktop-" transform="translate(-176.000000, -412.000000)" fill="#6C7688" fill-rule="nonzero">
            <g id="map" transform="translate(176.000000, 412.000000)">
                <path d="M14.5279687,3.2059375 C13.2365625,3.2059375 12.1858984,4.25660156 12.1858984,5.54800781 C12.1858984,6.83941406 13.2365625,7.89007813 14.5279687,7.89007813 C15.819375,7.89007813 16.8700391,6.83941406 16.8700391,5.54800781 C16.8700391,4.25660156 15.8194141,3.2059375 14.5279687,3.2059375 Z M14.5279687,6.32871094 C14.0975,6.32871094 13.7472656,5.97847656 13.7472656,5.54800781 C13.7472656,5.11753906 14.0975,4.76730469 14.5279687,4.76730469 C14.9584375,4.76730469 15.3086719,5.11753906 15.3086719,5.54800781 C15.3086719,5.97847656 14.9584766,6.32871094 14.5279687,6.32871094 Z" id="Shape"></path>
                <path d="M14.5279687,0.0063671875 C11.5146484,0.0063671875 9.063125,2.45667969 9.063125,5.46855469 L9.063125,5.61195313 C9.063125,7.12691406 9.91574219,8.8734375 11.5973047,10.8029687 C12.7994141,12.1823828 13.9874609,13.1463672 14.0374609,13.1867188 L14.5278906,13.5827734 L15.0183203,13.1867188 C15.0683203,13.1463672 16.2563672,12.1823437 17.4584766,10.8029687 C19.1400781,8.8734375 19.9926562,7.12691406 19.9926562,5.61195313 L19.9926562,5.46855469 C19.9928125,2.45667969 17.5413281,0.0063671875 14.5279687,0.0063671875 Z M18.4314453,5.61195312 C18.4314453,7.6478125 15.9492187,10.2851562 14.5305469,11.5509766 C14.0984375,11.1637109 13.4353516,10.5354297 12.7744922,9.77714844 C11.3680078,8.16328125 10.6245313,6.72296875 10.6245313,5.61195312 L10.6245313,5.46855469 C10.6245313,3.31765625 12.375625,1.56777344 14.5279687,1.56777344 C16.6803125,1.56777344 18.4314453,3.31765625 18.4314453,5.46855469 L18.4314453,5.61195312 L18.4314453,5.61195312 Z" id="Shape"></path>
                <path d="M18.6357031,11.82875 C18.5674219,11.9071484 18.499375,11.9838672 18.4314453,12.0595703 L18.4314453,18.0400391 L13.8644141,16.9928125 L13.8644141,15.05375 L13.5470703,14.7975391 L13.0566406,14.4015625 C12.9953125,14.3520703 12.7116797,14.1203906 12.3029687,13.7482031 L12.3029687,17.0070703 L7.69691406,18.1732031 L7.69691406,3.03429687 L7.96332031,2.96515625 C8.22789062,2.27421875 8.59863281,1.63535156 9.05550781,1.06863281 L6.90714844,1.62613281 L0.0071484375,0 L0.0071484375,18.2642969 L6.91804687,19.9810156 L13.0927734,18.4178125 L19.9928125,20 L19.9928125,10.0640625 C19.6097266,10.6416016 19.15625,11.2315234 18.6357031,11.82875 Z M6.13554687,18.1777344 L1.56851562,17.0432422 L1.56851562,1.97210938 L6.13554687,3.04839844 L6.13554687,18.1777344 Z" id="Shape"></path>
            </g>
        </g>
    </g>
</svg>