<?xml version="1.0" encoding="UTF-8"?>
<svg width="20px" height="20px" viewBox="0 0 20 20" version="1.1" xmlns="http://www.w3.org/2000/svg" xmlns:xlink="http://www.w3.org/1999/xlink">
    <!-- Generator: sketchtool 59 (101010) - https://sketch.com -->
    <title>6E8A3E8B-00DD-42E8-AFC2-9D23A1E8607E_webview</title>
    <desc>Created with sketchtool.</desc>
    <g id="Page-3" stroke="none" stroke-width="1" fill="none" fill-rule="evenodd">
        <g id="Desktop-" transform="translate(-416.000000, -412.000000)" fill="#6C7688" fill-rule="nonzero">
            <g id="oxygen" transform="translate(416.000000, 412.000000)">
                <path d="M18.6903704,12.0461953 L18.6903704,3.49050505 C18.6903704,1.60296296 17.1546801,0.0672727273 15.267138,0.0672727273 L0.646734007,0.0672727273 C0.28956229,0.0672727273 0,0.356835017 0,0.714006734 C0,1.07117845 0.28956229,1.36074074 0.646734007,1.36074074 L2.81326599,1.36074074 L2.81326599,2.04215488 C1.43400673,2.20505051 0.36040404,3.38074074 0.36040404,4.80309764 L0.36040404,16.4784512 C0.36040404,18.0118519 1.60794613,19.2593939 3.1413468,19.2593939 L3.77872054,19.2593939 C5.31212121,19.2593939 6.5596633,18.0118519 6.5596633,16.4784512 L6.5596633,9.44774411 L8.94552189,9.44774411 L8.94552189,16.4783838 C8.94552189,18.0117845 10.193064,19.2593939 11.7264646,19.2593939 L12.3638384,19.2593939 C13.8972391,19.2593939 15.1447811,18.0117845 15.1447811,16.4783838 L15.1447811,4.8030303 C15.1447811,3.3806734 14.0711785,2.20505051 12.6919192,2.04208754 L12.6919192,1.36074074 L15.2672727,1.36074074 C16.4416162,1.36074074 17.397037,2.31616162 17.397037,3.49050505 L17.397037,12.0352862 C16.6177778,12.2989899 16.0550842,13.0367003 16.0550842,13.9038384 C16.0550842,14.9914478 16.94,15.8763636 18.0276094,15.8763636 C19.1152189,15.8763636 20,14.9914478 20,13.9038384 C20,13.0486869 19.452862,12.3191919 18.6903704,12.0461953 Z M3.14127946,3.31555556 L3.7786532,3.31555556 C4.59885522,3.31555556 5.26612795,3.98282828 5.26612795,4.8030303 L5.26612795,5.70141414 L1.65380471,5.70141414 L1.65380471,4.8030303 C1.65380471,3.98282828 2.32107744,3.31555556 3.14127946,3.31555556 Z M1.65380471,6.99488215 L5.26612795,6.99488215 L5.26612795,14.286532 L1.65380471,14.286532 L1.65380471,6.99488215 Z M3.7786532,17.9658586 L3.14127946,17.9658586 C2.32107744,17.9658586 1.65380471,17.2985859 1.65380471,16.4783838 L1.65380471,15.58 L5.26612795,15.58 L5.26612795,16.4783838 C5.26612795,17.2985859 4.59892256,17.9658586 3.7786532,17.9658586 Z M13.8512458,14.286532 L10.2389226,14.286532 L10.2389226,6.99488215 L13.8512458,6.99488215 L13.8512458,14.286532 Z M12.363771,17.9658586 L11.7263973,17.9658586 C10.9061953,17.9658586 10.2389226,17.2985859 10.2389226,16.4783838 L10.2389226,15.58 L13.8512458,15.58 L13.8512458,16.4783838 C13.8512458,17.2985859 13.1839731,17.9658586 12.363771,17.9658586 Z M13.8512458,4.8030303 L13.8512458,5.70141414 L10.2389226,5.70141414 L10.2389226,4.8030303 C10.2389226,3.98282828 10.9061953,3.31555556 11.7263973,3.31555556 L12.363771,3.31555556 C13.1839731,3.31555556 13.8512458,3.98282828 13.8512458,4.8030303 Z M11.3983838,2.04208754 C10.0191246,2.20498316 8.94552189,3.3806734 8.94552189,4.8030303 L8.94552189,8.15434343 L6.55959596,8.15434343 L6.55959596,4.8030303 C6.55959596,3.3806734 5.48599327,2.20505051 4.10673401,2.04208754 L4.10673401,1.36074074 L11.3983838,1.36074074 L11.3983838,2.04208754 L11.3983838,2.04208754 Z M18.0274747,14.5828956 C17.6529966,14.5828956 17.3484175,14.2783165 17.3484175,13.9038384 C17.3484175,13.5293603 17.6529966,13.2247811 18.0274747,13.2247811 C18.4019529,13.2247811 18.706532,13.5293603 18.706532,13.9038384 C18.706532,14.2783165 18.4019529,14.5828956 18.0274747,14.5828956 Z" id="Shape"></path>
            </g>
        </g>
    </g>
</svg>