<?xml version="1.0" encoding="UTF-8"?>
<svg width="17px" height="17px" viewBox="0 0 17 17" version="1.1" xmlns="http://www.w3.org/2000/svg" xmlns:xlink="http://www.w3.org/1999/xlink">
    <!-- Generator: sketchtool 59 (101010) - https://sketch.com -->
    <title>1E7DA2BF-6452-45B3-9CF5-3FD41FFC4BE6_webview</title>
    <desc>Created with sketchtool.</desc>
    <g id="Page-3" stroke="none" stroke-width="1" fill="none" fill-rule="evenodd">
        <g id="Desktop-" transform="translate(-1440.000000, -40.000000)" fill-rule="nonzero">
            <g id="spain" transform="translate(1440.000000, 40.000000)">
                <path d="M13.28125,0 L3.71875,0 C1.6649375,0 0,1.6649375 0,3.71875 L0,13.28125 C0,15.3350625 1.6649375,17 3.71875,17 L13.28125,17 C15.3350625,17 17,15.3350625 17,13.28125 L17,3.71875 C17,1.6649375 15.3350625,0 13.28125,0 Z" id="Path" fill="#C8414B"></path>
                <rect id="Rectangle" fill="#FFD250" x="0" y="3.54044922" width="17" height="9.91910156"></rect>
                <path d="M7.40731836,8.51367969 L7.68141016,7.39589648 C7.70664453,7.2929668 7.6202168,7.19531641 7.50387305,7.19531641 L7.31079687,7.19531641 C7.19445312,7.19531641 7.10799219,7.2929668 7.13325977,7.39589648 L7.40731836,8.51367969 Z" id="Path" fill="#C8414B"></path>
                <rect id="Rectangle" fill="#F5F5F5" x="7.08388672" y="7.92757812" width="1" height="2.49023438"></rect>
                <rect id="Rectangle" fill="#FAB446" x="6.92251953" y="7.63472656" width="1" height="1"></rect>
                <g id="Group" transform="translate(2.257812, 7.171875)" fill="#C8414B">
                    <rect id="Rectangle" x="4.01791016" y="1.34173828" width="1.61636133" height="1"></rect>
                    <polygon id="Path" points="5.6344375 2.51367578 4.66460742 2.22069141 4.66460742 1.92774023 5.6344375 2.22069141"></polygon>
                    <path d="M0.300388672,1.34180469 L0.574480469,0.224021484 C0.599714844,0.121091797 0.513287109,0.0234414062 0.396943359,0.0234414062 L0.203867187,0.0234414062 C0.0875234375,0.0234414062 0.0010625,0.121091797 0.0263300781,0.224021484 L0.300388672,1.34180469 Z" id="Path"></path>
                </g>
                <path d="M3.68966406,7.63475977 C3.51113086,7.63475977 3.36639844,7.76591211 3.36639844,7.92774414 L3.36639844,9.83204297 C3.36639844,10.1880137 3.73299414,10.8574219 4.98279297,10.8574219 C6.2325918,10.8574219 6.5991875,10.1879805 6.5991875,9.83204297 L6.5991875,7.92774414 C6.5991875,7.76594531 6.45445508,7.63475977 6.27592188,7.63475977 L3.68966406,7.63475977 L3.68966406,7.63475977 Z" id="Path" fill="#F5F5F5"></path>
                <g id="Group" transform="translate(3.353516, 7.603516)" fill="#C8414B">
                    <path d="M1.62924414,1.49609961 L0.0128496094,1.49609961 L0.0128496094,0.339003906 C0.0128496094,0.169037109 0.150642578,0.0312441406 0.320609375,0.0312441406 L1.62924414,0.0312441406 L1.62924414,1.49609961 Z" id="Path"></path>
                    <path d="M1.62924414,1.49609961 L3.24563867,1.49609961 L3.24563867,2.19157227 C3.24563867,2.61647266 2.90118945,2.96095508 2.47625586,2.96095508 L2.39862695,2.96095508 C1.97372656,2.96095508 1.62924414,2.61650586 1.62924414,2.19157227 L1.62924414,1.49609961 L1.62924414,1.49609961 Z" id="Path"></path>
                </g>
                <path d="M3.36636523,9.09961523 L4.98275977,9.09961523 L4.98275977,9.79508789 C4.98275977,10.2199883 4.63831055,10.5644707 4.21337695,10.5644707 L4.13574805,10.5644707 C3.71084766,10.5644707 3.36636523,10.2200215 3.36636523,9.79508789 C3.36636523,9.79508789 3.36636523,9.09961523 3.36636523,9.09961523 Z" id="Path" fill="#FAB446"></path>
                <g id="Group" transform="translate(3.685547, 9.097656)" fill="#C8414B">
                    <path d="M0.977766667,1.31700195 L0.977766667,0.00195898438 L0.653233333,0.00195898438 L0.653233333,1.45203906 C0.7739,1.42989258 0.883,1.38164844 0.977766667,1.31700195 Z" id="Path"></path>
                    <path d="M0.328666667,1.45203906 L0.328666667,0.00195898438 L0.00413333333,0.00195898438 L0.00413333333,1.31700195 C0.0989,1.38164844 0.207966667,1.42989258 0.328666667,1.45203906 Z" id="Path"></path>
                </g>
                <rect id="Rectangle" fill="#FFB441" x="3.68953125" y="8.51361328" width="1" height="1"></rect>
                <g id="Group" transform="translate(3.685547, 7.902344)" fill="#FAB446">
                    <rect id="Rectangle" x="0.004" y="0.0345454545" width="1" height="1"></rect>
                    <rect id="Rectangle" x="0.166333333" y="0.273181818" width="1" height="1"></rect>
                </g>
                <rect id="Rectangle" fill="#F5F5F5" x="2.23490234" y="7.92757812" width="1" height="2.49023438"></rect>
                <g id="Group" transform="translate(2.058594, 7.603516)" fill="#FAB446">
                    <rect id="Rectangle" x="0.0146666667" y="2.66787109" width="1" height="1"></rect>
                    <rect id="Rectangle" x="0.0146666667" y="0.0312109375" width="1" height="1"></rect>
                </g>
                <rect id="Rectangle" fill="#5064AA" x="1.91150391" y="10.5645703" width="1.2930957" height="1"></rect>
                <rect id="Rectangle" fill="#FAB446" x="7.08388672" y="10.2713867" width="1" height="1"></rect>
                <rect id="Rectangle" fill="#5064AA" x="6.76082031" y="10.5645703" width="1.2930957" height="1"></rect>
                <rect id="Rectangle" fill="#FAB446" x="4.01292969" y="7.341875" width="1.93972656" height="1"></rect>
                <rect id="Rectangle" fill="#FFB441" x="4.82109375" y="6.46298828" width="1" height="1"></rect>
                <g id="Group" transform="translate(3.519531, 6.009766)" fill="#F5F5F5">
                    <path d="M1.15506445,1.01367969 C0.879352319,1.01367969 0.655064453,0.789388037 0.655064453,0.513679687 C0.655064453,0.237971338 0.879352319,0.0136796875 1.15506445,0.0136796875 C1.43077659,0.0136796875 1.65506445,0.237971338 1.65506445,0.513679687 C1.65506445,0.789388037 1.43077659,1.01367969 1.15506445,1.01367969 Z M1.15506445,0.347000428 C1.06310335,0.347000428 0.988397786,0.421726533 0.988397786,0.513679688 C0.988397786,0.605632842 1.06310335,0.680358947 1.15506445,0.680358947 C1.24702556,0.680358947 1.32173112,0.605632842 1.32173112,0.513679688 C1.32173112,0.421726533 1.24702556,0.347000428 1.15506445,0.347000428 Z" id="Shape"></path>
                    <path d="M1.8015957,1.01367969 C1.52588357,1.01367969 1.3015957,0.789388037 1.3015957,0.513679687 C1.3015957,0.237971338 1.52588357,0.0136796875 1.8015957,0.0136796875 C2.07730784,0.0136796875 2.3015957,0.237971338 2.3015957,0.513679687 C2.3015957,0.789388037 2.07734207,1.01367969 1.8015957,1.01367969 Z M1.8015957,0.347000428 C1.7096346,0.347000428 1.63492904,0.421726533 1.63492904,0.513679688 C1.63492904,0.605632842 1.7096346,0.680358947 1.8015957,0.680358947 C1.89355681,0.680358947 1.96826237,0.605632842 1.96826237,0.513679688 C1.96826237,0.421726533 1.89355681,0.347000428 1.8015957,0.347000428 Z" id="Shape"></path>
                    <path d="M2.44814304,1.30666406 C2.17244034,1.30666406 1.94816016,1.08237241 1.94816016,0.806664062 C1.94816016,0.530955713 2.17244034,0.306664062 2.44814304,0.306664062 C2.72384573,0.306664062 2.94816016,0.530955713 2.94816016,0.806664062 C2.94816016,1.08237241 2.72384573,1.30666406 2.44814304,1.30666406 Z M2.44814304,0.639984803 C2.35618508,0.639984803 2.28148208,0.714710908 2.28148208,0.806664063 C2.28148208,0.898617217 2.35618508,0.973343322 2.44814304,0.973343322 C2.540101,0.973343322 2.614804,0.898617217 2.614804,0.806664063 C2.614804,0.714673129 2.540101,0.639984803 2.44814304,0.639984803 Z" id="Shape"></path>
                    <path d="M0.5085,1.30666406 C0.232787866,1.30666406 0.0085,1.08237241 0.0085,0.806664062 C0.0085,0.530955713 0.232787866,0.306664062 0.5085,0.306664062 C0.784212134,0.306664062 1.0085,0.530955713 1.0085,0.806664062 C1.0085,1.08237241 0.784212134,1.30666406 0.5085,1.30666406 Z M0.5085,0.639984803 C0.416538893,0.639984803 0.341833333,0.714710908 0.341833333,0.806664063 C0.341833333,0.898617217 0.416538893,0.973343322 0.5085,0.973343322 C0.600461107,0.973343322 0.675166667,0.898617217 0.675166667,0.806664063 C0.675166667,0.714673129 0.600461107,0.639984803 0.5085,0.639984803 Z" id="Shape"></path>
                </g>
                <path d="M5.97270347,9.72592493 L5.97270347,9.89260418 C5.97270347,9.98451956 5.89793199,10.0592834 5.80604251,10.0592834 C5.71415302,10.0592834 5.63938155,9.98451956 5.63938155,9.89260418 L5.63938155,9.72592493 L5.97270347,9.72592493 M6.30602539,9.39256641 L5.30602539,9.39256641 L5.30602539,9.89256641 C5.30602539,10.1682748 5.53033981,10.3925664 5.80600827,10.3925664 C6.08171097,10.3925664 6.30602539,10.168237 6.30602539,9.89256641 L6.30602539,9.39256641 L6.30602539,9.39256641 Z" id="Shape" fill="#FAB446"></path>
                <path d="M5.80646289,8.80663086 L5.77541797,8.80663086 C5.60545117,8.80663086 5.4676582,8.66883789 5.4676582,8.49887109 L5.4676582,8.2354707 C5.4676582,8.06550391 5.60545117,7.92771094 5.77541797,7.92771094 L5.80646289,7.92771094 C5.97642969,7.92771094 6.11422266,8.06550391 6.11422266,8.2354707 L6.11422266,8.49887109 C6.11422266,8.66887109 5.97642969,8.80663086 5.80646289,8.80663086 Z" id="Path" fill="#FFA0D2"></path>
                <ellipse id="Oval" fill="#5064AA" cx="4.98279297" cy="9.09964844" rx="1" ry="1"></ellipse>
                <rect id="Rectangle" fill="#FAB446" x="4.82109375" y="5.87695312" width="1" height="1"></rect>
                <path d="M4.01292969,7.34180859 L3.68966406,7.04882422 L3.87902148,6.87719727 C4.17174023,6.6119043 4.5687832,6.46288867 4.98275977,6.46288867 L4.98275977,6.46288867 C5.39673633,6.46288867 5.7937793,6.6119375 6.08649805,6.87719727 L6.27585547,7.04882422 L5.95258984,7.34180859 L4.01292969,7.34180859 Z" id="Path" fill="#C8414B"></path>
                <g id="Group" transform="translate(4.150391, 6.873047)" fill="#FFD250">
                    <ellipse id="Oval" cx="0.832402344" cy="0.529" rx="1" ry="1"></ellipse>
                    <ellipse id="Oval" cx="0.1859375" cy="0.529" rx="1" ry="1"></ellipse>
                    <ellipse id="Oval" cx="1.47886719" cy="0.529" rx="1" ry="1"></ellipse>
                </g>
                <g id="Group" transform="translate(2.058594, 8.500000)" fill="#C8414B">
                    <rect id="Rectangle" x="0.014609375" y="0.0136132813" width="1.61636133" height="1"></rect>
                    <polygon id="Path" points="0.0146757813 1.18555078 0.984505859 0.892566406 0.984505859 0.599615234 0.0146757813 0.892566406"></polygon>
                </g>
            </g>
        </g>
    </g>
</svg>