<?xml version="1.0" encoding="UTF-8"?>
<svg width="12px" height="14px" viewBox="0 0 12 14" version="1.1" xmlns="http://www.w3.org/2000/svg" xmlns:xlink="http://www.w3.org/1999/xlink">
    <!-- Generator: sketchtool 59 (101010) - https://sketch.com -->
    <title>38FEAA79-55AA-4118-895A-CC3DB212C3F6_webview</title>
    <desc>Created with sketchtool.</desc>
    <g id="Page-3" stroke="none" stroke-width="1" fill="none" fill-rule="evenodd">
        <g id="Desktop-" transform="translate(-282.000000, -2153.000000)" fill-rule="nonzero" stroke="#000000">
            <g id="placeholder" transform="translate(283.000000, 2154.000000)">
                <path d="M4.81858974,0.00317948718 C2.33397436,0.0903589744 0.269871795,2.02882051 0.0314102564,4.50317949 C-0.0173076923,4.99805128 0.0108974359,5.47753846 0.0980769231,5.93651282 L0.0980769231,5.93651282 C0.0980769231,5.93651282 0.105769231,5.99035897 0.131410256,6.09292308 C0.208333333,6.43651282 0.323717949,6.76984615 0.467307692,7.08266667 C0.967307692,8.26728205 2.12371795,10.2493333 4.71858974,12.4057436 C4.8775641,12.5390769 5.11089744,12.5390769 5.2724359,12.4057436 C7.86730769,10.2518974 9.02371795,8.26984615 9.52628205,7.08010256 C9.6724359,6.76728205 9.78525641,6.43651282 9.86217949,6.09035897 C9.88525641,5.99035897 9.89551282,5.93394872 9.89551282,5.93394872 L9.89551282,5.93394872 C9.95448718,5.62625641 9.98525641,5.31087179 9.98525641,4.98779487 C9.98525641,2.17241026 7.65448718,-0.0968205128 4.81858974,0.00317948718 Z M4.99551282,7.46984615 C3.65705128,7.46984615 2.5724359,6.38523077 2.5724359,5.04676923 C2.5724359,3.70830769 3.65705128,2.62369231 4.99551282,2.62369231 C6.33397436,2.62369231 7.41858974,3.70830769 7.41858974,5.04676923 C7.41858974,6.38523077 6.33397436,7.46984615 4.99551282,7.46984615 Z" id="Shape"></path>
            </g>
        </g>
    </g>
</svg>