<?xml version="1.0" encoding="UTF-8"?>
<svg width="18px" height="20px" viewBox="0 0 18 20" version="1.1" xmlns="http://www.w3.org/2000/svg" xmlns:xlink="http://www.w3.org/1999/xlink">
    <!-- Generator: sketchtool 59 (101010) - https://sketch.com -->
    <title>E74F55B7-FC03-4931-83EE-F0A5DA2686B3_webview</title>
    <desc>Created with sketchtool.</desc>
    <g id="Page-3" stroke="none" stroke-width="1" fill="none" fill-rule="evenodd">
        <g id="Desktop-" transform="translate(-645.000000, -412.000000)" fill="#6C7688" fill-rule="nonzero">
            <g id="diving-mask" transform="translate(645.000000, 412.000000)">
                <path d="M16.4152174,4.1015625 L16.4152174,7.61871094 L14.85,7.61871094 L14.85,6.875 C14.85,5.58265625 13.7967652,4.53125 12.5021739,4.53125 L2.3673913,4.53125 C1.0728,4.53125 0.0195652174,5.58265625 0.0195652174,6.875 L0.0195652174,9.7140625 C0.0195652174,10.8528906 0.52743913,11.918125 1.41303913,12.6366406 C2.2944913,13.3518359 3.43655217,13.6293359 4.54625217,13.3980469 C5.98425652,13.0982813 6.54644348,12.4823438 6.91845652,12.0747656 C7.16673913,11.8027344 7.20446087,11.7614453 7.43474348,11.759375 C7.66506522,11.7614063 7.70278696,11.8027344 7.95103043,12.0747656 C8.32304348,12.4823438 8.88523043,13.0982813 10.3232348,13.3980469 C10.5796565,13.4515234 10.8376435,13.4777734 11.0939087,13.4777734 C11.9466391,13.4777734 12.7786696,13.1865625 13.4564478,12.6366406 C14.3420478,11.918125 14.8499217,10.8528516 14.8499217,9.7140625 L14.8499217,9.18121094 L16.4151391,9.18121094 L16.4151391,14.0714844 C16.4151391,16.4789063 14.4531391,18.4375 12.0414913,18.4375 C10.6773652,18.4375 9.40120435,17.7942578 8.58236087,16.7425391 C9.30873913,16.3435937 9.80205652,15.5719922 9.80205652,14.6875 L8.23683913,14.6875 C8.23683913,15.1182813 7.88576087,15.46875 7.45423043,15.46875 C7.0227,15.46875 6.67162174,15.1182813 6.67162174,14.6875 L5.10640435,14.6875 C5.10640435,15.7713672 5.84722174,16.6857422 6.84993913,16.9525391 C7.32126522,17.7980469 7.99313478,18.516875 8.81174348,19.0473437 C9.77364783,19.6705859 10.8904696,20 12.0416087,20 C15.3162783,20 17.9804348,17.3405078 17.9804348,14.0714844 L17.9804348,4.1015625 L16.4152174,4.1015625 Z M13.2847826,9.7140625 L13.2847826,9.7140625 C13.2847826,10.3803516 12.9875478,11.0036328 12.4693043,11.4241016 C11.9551304,11.8412891 11.2896783,12.0032812 10.6432043,11.8685547 C9.7011,11.6721484 9.41302174,11.3565625 9.10807826,11.0224219 C8.79452609,10.6788672 8.36675217,10.2101172 7.45434783,10.1971094 L7.41521739,10.1968359 L7.41521739,10.1971094 C6.50285217,10.2101172 6.07503913,10.6788672 5.76148696,11.0224219 C5.45650435,11.3565625 5.16846522,11.6721484 4.22636087,11.8685547 C3.58008261,12.0032812 2.91447391,11.8412891 2.40026087,11.4241016 C1.88201739,11.0036328 1.58478261,10.3803516 1.58478261,9.7140625 L1.58478261,6.875 C1.58478261,6.44421875 1.93586087,6.09375 2.3673913,6.09375 L12.5021739,6.09375 C12.9337043,6.09375 13.2847826,6.44421875 13.2847826,6.875 L13.2847826,9.7140625 L13.2847826,9.7140625 Z" id="Shape"></path>
                <rect id="Rectangle" x="16.4152174" y="0" width="1.56521739" height="2.9296875"></rect>
            </g>
        </g>
    </g>
</svg>