<?xml version="1.0" encoding="UTF-8"?>
<svg width="15px" height="15px" viewBox="0 0 15 15" version="1.1" xmlns="http://www.w3.org/2000/svg" xmlns:xlink="http://www.w3.org/1999/xlink">
    <!-- Generator: sketchtool 59 (101010) - https://sketch.com -->
    <title>40FD3F22-780A-436C-8D8D-25BBC534B54A_webview</title>
    <desc>Created with sketchtool.</desc>
    <g id="Page-3" stroke="none" stroke-width="1" fill="none" fill-rule="evenodd">
        <g id="Desktop-" transform="translate(-280.000000, -2180.000000)" fill="#000000" fill-rule="nonzero">
            <g id="sun" transform="translate(280.000000, 2180.000000)">
                <path d="M10.1386139,4.83168317 C9.46534653,4.15841584 8.51485149,3.72277228 7.48514851,3.72277228 C6.45544554,3.72277228 5.5049505,4.13861386 4.83168317,4.83168317 C4.15841584,5.5049505 3.72277228,6.45544554 3.72277228,7.48514851 C3.72277228,8.51485149 4.15841584,9.46534653 4.83168317,10.1386139 C5.5049505,10.8118812 6.45544554,11.2475248 7.48514851,11.2475248 C8.51485149,11.2475248 9.46534653,10.8316832 10.1386139,10.1386139 C10.8118812,9.46534653 11.2475248,8.51485149 11.2475248,7.48514851 C11.2475248,6.45544554 10.8316832,5.5049505 10.1386139,4.83168317 Z M9.42574257,9.42574257 C8.93069307,9.92079208 8.23762376,10.2178218 7.48514851,10.2178218 C6.73267327,10.2178218 6.03960396,9.92079208 5.54455446,9.42574257 C5.04950495,8.93069307 4.75247525,8.23762376 4.75247525,7.48514851 C4.75247525,6.73267327 5.04950495,6.03960396 5.54455446,5.54455446 C6.03960396,5.04950495 6.73267327,4.75247525 7.48514851,4.75247525 C8.23762376,4.75247525 8.93069307,5.04950495 9.42574257,5.54455446 C9.92079208,6.03960396 10.2178218,6.73267327 10.2178218,7.48514851 C10.2178218,8.23762376 9.92079208,8.93069307 9.42574257,9.42574257 Z" id="Shape"></path>
                <path d="M14.4554455,6.97029703 L12.9306931,6.97029703 C12.6534653,6.97029703 12.4158416,7.20792079 12.4158416,7.48514851 C12.4158416,7.76237624 12.6534653,8 12.9306931,8 L14.4554455,8 C14.7326733,8 14.970297,7.76237624 14.970297,7.48514851 C14.970297,7.20792079 14.7326733,6.97029703 14.4554455,6.97029703 Z" id="Path"></path>
                <path d="M7.48514851,12.4158416 C7.20792079,12.4158416 6.97029703,12.6534653 6.97029703,12.9306931 L6.97029703,14.4554455 C6.97029703,14.7326733 7.20792079,14.970297 7.48514851,14.970297 C7.76237624,14.970297 8,14.7326733 8,14.4554455 L8,12.9306931 C8,12.6534653 7.76237624,12.4158416 7.48514851,12.4158416 Z" id="Path"></path>
                <path d="M12.7722772,12.0594059 L11.6831683,10.970297 C11.5049505,10.7722772 11.1683168,10.7722772 10.970297,10.970297 C10.7722772,11.1683168 10.7722772,11.4851485 10.970297,11.6831683 L12.0594059,12.7722772 C12.2574257,12.970297 12.5742574,12.970297 12.7722772,12.7722772 C12.970297,12.5742574 12.970297,12.2574257 12.7722772,12.0594059 Z" id="Path"></path>
                <path d="M7.48514851,0 C7.20792079,0 6.97029703,0.237623762 6.97029703,0.514851485 L6.97029703,2.03960396 C6.97029703,2.31683168 7.20792079,2.55445545 7.48514851,2.55445545 C7.76237624,2.55445545 8,2.31683168 8,2.03960396 L8,0.514851485 C8,0.237623762 7.76237624,0 7.48514851,0 Z" id="Path"></path>
                <path d="M12.7920792,2.1980198 C12.5940594,2 12.2772277,2 12.0792079,2.1980198 L10.990099,3.28712871 C10.7920792,3.48514851 10.7920792,3.8019802 10.990099,4 C11.1683168,4.1980198 11.5049505,4.1980198 11.7029703,4 L12.7920792,2.91089109 C12.990099,2.71287129 12.990099,2.3960396 12.7920792,2.1980198 Z" id="Path"></path>
                <path d="M2.03960396,6.97029703 L0.514851485,6.97029703 C0.237623762,6.97029703 0,7.20792079 0,7.48514851 C0,7.76237624 0.217821782,8 0.514851485,8 L2.03960396,8 C2.31683168,8 2.55445545,7.76237624 2.55445545,7.48514851 C2.55445545,7.20792079 2.31683168,6.97029703 2.03960396,6.97029703 Z" id="Path"></path>
                <path d="M3.98019802,10.970297 C3.8019802,10.7722772 3.46534653,10.7722772 3.26732673,10.970297 L2.17821782,12.0594059 C1.98019802,12.2574257 1.98019802,12.5742574 2.17821782,12.7722772 C2.37623762,12.970297 2.69306931,12.970297 2.89108911,12.7722772 L3.98019802,11.6831683 C4.17821782,11.4851485 4.17821782,11.1683168 3.98019802,10.970297 Z" id="Path"></path>
                <path d="M3.98019802,3.28712871 L2.89108911,2.1980198 C2.69306931,2 2.37623762,2 2.17821782,2.1980198 C1.98019802,2.3960396 1.98019802,2.71287129 2.17821782,2.91089109 L3.26732673,4 C3.46534653,4.1980198 3.78217822,4.1980198 3.98019802,4 C4.17821782,3.8019802 4.17821782,3.48514851 3.98019802,3.28712871 Z" id="Path"></path>
            </g>
        </g>
    </g>
</svg>